<svg width="1024" height="1024" viewBox="0 0 1024 1024" fill="none" xmlns="http://www.w3.org/2000/svg">
<path d="M414.592 149.376L746.24 489.6C752.065 495.576 755.325 503.591 755.325 511.936C755.325 520.281 752.065 528.296 746.24 534.272L414.592 874.624C411.879 877.411 408.635 879.626 405.051 881.138C401.468 882.651 397.618 883.43 393.728 883.43C389.839 883.43 385.988 882.651 382.405 881.138C378.821 879.626 375.577 877.411 372.864 874.624C367.282 868.909 364.157 861.237 364.157 853.248C364.157 845.259 367.282 837.587 372.864 831.872L684.736 511.936L372.864 192.064C367.301 186.352 364.188 178.693 364.188 170.72C364.188 162.747 367.301 155.088 372.864 149.376C375.577 146.589 378.821 144.374 382.405 142.862C385.988 141.349 389.839 140.57 393.728 140.57C397.618 140.57 401.468 141.349 405.051 142.862C408.635 144.374 411.879 146.589 414.592 149.376V149.376Z" fill="black"/>
</svg>
