<svg width="45" height="45" viewBox="0 0 45 45" fill="none" xmlns="http://www.w3.org/2000/svg">
<path d="M19.0195 16.6201H26.2195C29.6195 16.6201 29.9595 18.2101 30.1895 20.1501L31.0895 27.6501C31.3795 30.1101 30.6195 32.1201 27.1195 32.1201H18.1295C14.6195 32.1201 13.8595 30.1101 14.1595 27.6501L15.0595 20.1501C15.2795 18.2101 15.6195 16.6201 19.0195 16.6201Z" stroke="black" stroke-width="1.5" stroke-linecap="round" stroke-linejoin="round"/>
<path d="M18.5 18.6201V15.1201C18.5 13.6201 19.5 12.6201 21 12.6201H24C25.5 12.6201 26.5 13.6201 26.5 15.1201V18.6201" stroke="black" stroke-width="1.5" stroke-linecap="round" stroke-linejoin="round"/>
<path d="M23.257 29.0201H22.069V22.6181L20.386 23.5201V22.3431L22.201 21.3201H23.257V29.0201Z" fill="black"/>
</svg>
