<svg width="30" height="30" viewBox="0 0 30 30" fill="none" xmlns="http://www.w3.org/2000/svg">
<path d="M15 0C6.72379 0 0 6.72379 0 15C0 22.513 5.5415 28.7307 12.7588 29.8149L13.5418 29.9334V18.1135H9.99822V15.7138H13.5418V12.5271C13.5418 10.5647 14.0127 9.27233 14.7923 8.46147C15.5718 7.65061 16.7236 7.24165 18.3265 7.24165C19.6082 7.24165 20.1068 7.31931 20.5811 7.37749V9.34171H18.9125C17.9657 9.34171 17.1889 9.86993 16.7858 10.5735C16.3826 11.2771 16.2571 12.1171 16.2571 12.9732V15.7124H20.4319L20.0604 18.1121H16.2571V29.9521L17.0308 29.8469C24.3507 28.8541 30 22.5865 30 15C30 6.72379 23.2762 0 15 0ZM15 1.36364C22.5392 1.36364 28.6364 7.46075 28.6364 15C28.6364 21.6339 23.888 27.0899 17.6207 28.3181V19.4758H21.2296L22.0219 14.3488H17.6207V12.9732C17.6207 12.2658 17.7502 11.632 17.9683 11.2513C18.1864 10.8706 18.3967 10.7053 18.9125 10.7053H21.9447V6.14302L21.3534 6.06312C20.9445 6.00778 20.0108 5.87802 18.3265 5.87802C16.4835 5.87802 14.9015 6.38008 13.8095 7.51598C12.7174 8.65188 12.1782 10.3433 12.1782 12.5271V14.3501H8.63459V19.4771H12.1782V28.2755C6.01159 26.9692 1.36364 21.5621 1.36364 15C1.36364 7.46075 7.46075 1.36364 15 1.36364Z" fill="black"/>
</svg>
