<svg width="101" height="39" viewBox="0 0 101 39" fill="none" xmlns="http://www.w3.org/2000/svg">
<circle cx="27.5" cy="17.5" r="17.5" fill="#F29F8D"/>
<rect y="18" width="21" height="21" fill="#95ABC8"/>
<path d="M5.40625 28.043C5.40625 27.737 5.50065 27.4798 5.68945 27.2715C5.88477 27.0566 6.16471 26.9492 6.5293 26.9492C6.89388 26.9492 7.17057 27.0566 7.35938 27.2715C7.55469 27.4798 7.65234 27.737 7.65234 28.043C7.65234 28.3424 7.55469 28.5964 7.35938 28.8047C7.17057 29.013 6.89388 29.1172 6.5293 29.1172C6.16471 29.1172 5.88477 29.013 5.68945 28.8047C5.50065 28.5964 5.40625 28.3424 5.40625 28.043ZM18.1742 18.4336V19.8203H12.4613V18.4336H18.1742ZM14.3949 15.8652H16.2016V26.3828C16.2016 26.7409 16.2569 27.0111 16.3676 27.1934C16.4783 27.3757 16.6215 27.4961 16.7973 27.5547C16.973 27.6133 17.1618 27.6426 17.3637 27.6426C17.5134 27.6426 17.6697 27.6296 17.8324 27.6035C18.0017 27.571 18.1286 27.5449 18.2133 27.5254L18.223 29C18.0798 29.0456 17.891 29.0879 17.6566 29.127C17.4288 29.1725 17.1521 29.1953 16.8266 29.1953C16.3839 29.1953 15.977 29.1074 15.6059 28.9316C15.2348 28.7559 14.9385 28.4629 14.7172 28.0527C14.5023 27.6361 14.3949 27.0762 14.3949 26.373V15.8652ZM22.7195 23.834V23.6094C22.7195 22.8477 22.8302 22.1413 23.0516 21.4902C23.2729 20.8327 23.5919 20.263 24.0086 19.7812C24.4253 19.293 24.9298 18.9154 25.5223 18.6484C26.1147 18.375 26.7788 18.2383 27.5145 18.2383C28.2566 18.2383 28.924 18.375 29.5164 18.6484C30.1154 18.9154 30.6232 19.293 31.0398 19.7812C31.463 20.263 31.7853 20.8327 32.0066 21.4902C32.228 22.1413 32.3387 22.8477 32.3387 23.6094V23.834C32.3387 24.5957 32.228 25.3021 32.0066 25.9531C31.7853 26.6042 31.463 27.1738 31.0398 27.6621C30.6232 28.1439 30.1186 28.5215 29.5262 28.7949C28.9402 29.0618 28.2762 29.1953 27.534 29.1953C26.7918 29.1953 26.1245 29.0618 25.532 28.7949C24.9396 28.5215 24.4318 28.1439 24.0086 27.6621C23.5919 27.1738 23.2729 26.6042 23.0516 25.9531C22.8302 25.3021 22.7195 24.5957 22.7195 23.834ZM24.5262 23.6094V23.834C24.5262 24.3613 24.588 24.8594 24.7117 25.3281C24.8354 25.7904 25.021 26.2005 25.2684 26.5586C25.5223 26.9167 25.838 27.1999 26.2156 27.4082C26.5932 27.61 27.0327 27.7109 27.534 27.7109C28.0288 27.7109 28.4617 27.61 28.8328 27.4082C29.2104 27.1999 29.5229 26.9167 29.7703 26.5586C30.0177 26.2005 30.2033 25.7904 30.327 25.3281C30.4572 24.8594 30.5223 24.3613 30.5223 23.834V23.6094C30.5223 23.0885 30.4572 22.597 30.327 22.1348C30.2033 21.666 30.0145 21.2526 29.7605 20.8945C29.5132 20.5299 29.2007 20.2435 28.823 20.0352C28.452 19.8268 28.0158 19.7227 27.5145 19.7227C27.0197 19.7227 26.5835 19.8268 26.2059 20.0352C25.8348 20.2435 25.5223 20.5299 25.2684 20.8945C25.021 21.2526 24.8354 21.666 24.7117 22.1348C24.588 22.597 24.5262 23.0885 24.5262 23.6094ZM39.5109 20.4648V33.0625H37.6945V18.4336H39.3547L39.5109 20.4648ZM46.6301 23.6289V23.834C46.6301 24.6022 46.5389 25.3151 46.3566 25.9727C46.1743 26.6237 45.9074 27.1901 45.5559 27.6719C45.2108 28.1536 44.7844 28.528 44.2766 28.7949C43.7687 29.0618 43.1861 29.1953 42.5285 29.1953C41.8579 29.1953 41.2655 29.0846 40.7512 28.8633C40.2368 28.6419 39.8007 28.3197 39.4426 27.8965C39.0845 27.4733 38.798 26.9655 38.5832 26.373C38.3749 25.7806 38.2316 25.1133 38.1535 24.3711V23.2773C38.2316 22.4961 38.3781 21.7962 38.593 21.1777C38.8078 20.5592 39.091 20.0319 39.4426 19.5957C39.8007 19.153 40.2336 18.8177 40.7414 18.5898C41.2492 18.3555 41.8352 18.2383 42.4992 18.2383C43.1633 18.2383 43.7525 18.3685 44.2668 18.6289C44.7811 18.8828 45.2141 19.2474 45.5656 19.7227C45.9172 20.1979 46.1809 20.7676 46.3566 21.4316C46.5389 22.0892 46.6301 22.8216 46.6301 23.6289ZM44.8137 23.834V23.6289C44.8137 23.1016 44.7583 22.6068 44.6477 22.1445C44.537 21.6758 44.3645 21.2656 44.1301 20.9141C43.9022 20.556 43.6092 20.276 43.2512 20.0742C42.8931 19.8659 42.4667 19.7617 41.9719 19.7617C41.5161 19.7617 41.119 19.8398 40.7805 19.9961C40.4484 20.1523 40.1652 20.3639 39.9309 20.6309C39.6965 20.8913 39.5044 21.1908 39.3547 21.5293C39.2115 21.8613 39.104 22.2064 39.0324 22.5645V25.0938C39.1626 25.5495 39.3449 25.9792 39.5793 26.3828C39.8137 26.7799 40.1262 27.1022 40.5168 27.3496C40.9074 27.5905 41.399 27.7109 41.9914 27.7109C42.4797 27.7109 42.8996 27.61 43.2512 27.4082C43.6092 27.1999 43.9022 26.9167 44.1301 26.5586C44.3645 26.2005 44.537 25.7904 44.6477 25.3281C44.7583 24.8594 44.8137 24.3613 44.8137 23.834ZM53.9977 18.4336V29H52.1813V18.4336H53.9977ZM52.0445 15.6309C52.0445 15.3379 52.1324 15.0905 52.3082 14.8887C52.4905 14.6868 52.7574 14.5859 53.109 14.5859C53.454 14.5859 53.7177 14.6868 53.9 14.8887C54.0888 15.0905 54.1832 15.3379 54.1832 15.6309C54.1832 15.9108 54.0888 16.1517 53.9 16.3535C53.7177 16.5488 53.454 16.6465 53.109 16.6465C52.7574 16.6465 52.4905 16.5488 52.3082 16.3535C52.1324 16.1517 52.0445 15.9108 52.0445 15.6309ZM64.2266 27.7109C64.6562 27.7109 65.0534 27.623 65.418 27.4473C65.7826 27.2715 66.082 27.0306 66.3164 26.7246C66.5508 26.4121 66.6842 26.0573 66.7168 25.6602H68.4355C68.403 26.2852 68.1914 26.8678 67.8008 27.4082C67.4167 27.9421 66.9121 28.375 66.2871 28.707C65.6621 29.0326 64.9753 29.1953 64.2266 29.1953C63.4323 29.1953 62.7389 29.0553 62.1465 28.7754C61.5605 28.4954 61.0723 28.1113 60.6816 27.623C60.2975 27.1348 60.0078 26.5749 59.8125 25.9434C59.6237 25.3053 59.5293 24.6315 59.5293 23.9219V23.5117C59.5293 22.8021 59.6237 22.1315 59.8125 21.5C60.0078 20.862 60.2975 20.2988 60.6816 19.8105C61.0723 19.3223 61.5605 18.9382 62.1465 18.6582C62.7389 18.3783 63.4323 18.2383 64.2266 18.2383C65.0534 18.2383 65.776 18.4076 66.3945 18.7461C67.013 19.0781 67.498 19.5339 67.8496 20.1133C68.2077 20.6862 68.403 21.3372 68.4355 22.0664H66.7168C66.6842 21.6302 66.5605 21.2363 66.3457 20.8848C66.1374 20.5332 65.8509 20.2533 65.4863 20.0449C65.1283 19.8301 64.7083 19.7227 64.2266 19.7227C63.6732 19.7227 63.2077 19.8333 62.8301 20.0547C62.459 20.2695 62.1628 20.5625 61.9414 20.9336C61.7266 21.2982 61.5703 21.7051 61.4727 22.1543C61.3815 22.597 61.3359 23.0495 61.3359 23.5117V23.9219C61.3359 24.3841 61.3815 24.8398 61.4727 25.2891C61.5638 25.7383 61.7168 26.1452 61.9316 26.5098C62.153 26.8743 62.4492 27.1673 62.8203 27.3887C63.1979 27.6035 63.6667 27.7109 64.2266 27.7109ZM77.7953 27.7109C78.225 27.7109 78.6221 27.623 78.9867 27.4473C79.3513 27.2715 79.6508 27.0306 79.8852 26.7246C80.1195 26.4121 80.253 26.0573 80.2855 25.6602H82.0043C81.9717 26.2852 81.7602 26.8678 81.3695 27.4082C80.9854 27.9421 80.4809 28.375 79.8559 28.707C79.2309 29.0326 78.544 29.1953 77.7953 29.1953C77.001 29.1953 76.3077 29.0553 75.7152 28.7754C75.1293 28.4954 74.641 28.1113 74.2504 27.623C73.8663 27.1348 73.5766 26.5749 73.3812 25.9434C73.1924 25.3053 73.098 24.6315 73.098 23.9219V23.5117C73.098 22.8021 73.1924 22.1315 73.3812 21.5C73.5766 20.862 73.8663 20.2988 74.2504 19.8105C74.641 19.3223 75.1293 18.9382 75.7152 18.6582C76.3077 18.3783 77.001 18.2383 77.7953 18.2383C78.6221 18.2383 79.3448 18.4076 79.9633 18.7461C80.5818 19.0781 81.0668 19.5339 81.4184 20.1133C81.7764 20.6862 81.9717 21.3372 82.0043 22.0664H80.2855C80.253 21.6302 80.1293 21.2363 79.9145 20.8848C79.7061 20.5332 79.4197 20.2533 79.0551 20.0449C78.697 19.8301 78.2771 19.7227 77.7953 19.7227C77.2419 19.7227 76.7764 19.8333 76.3988 20.0547C76.0277 20.2695 75.7315 20.5625 75.5102 20.9336C75.2953 21.2982 75.1391 21.7051 75.0414 22.1543C74.9503 22.597 74.9047 23.0495 74.9047 23.5117V23.9219C74.9047 24.3841 74.9503 24.8398 75.0414 25.2891C75.1326 25.7383 75.2855 26.1452 75.5004 26.5098C75.7217 26.8743 76.018 27.1673 76.3891 27.3887C76.7667 27.6035 77.2354 27.7109 77.7953 27.7109ZM86.657 23.834V23.6094C86.657 22.8477 86.7677 22.1413 86.9891 21.4902C87.2104 20.8327 87.5294 20.263 87.9461 19.7812C88.3628 19.293 88.8673 18.9154 89.4598 18.6484C90.0522 18.375 90.7163 18.2383 91.452 18.2383C92.1941 18.2383 92.8615 18.375 93.4539 18.6484C94.0529 18.9154 94.5607 19.293 94.9773 19.7812C95.4005 20.263 95.7228 20.8327 95.9441 21.4902C96.1655 22.1413 96.2762 22.8477 96.2762 23.6094V23.834C96.2762 24.5957 96.1655 25.3021 95.9441 25.9531C95.7228 26.6042 95.4005 27.1738 94.9773 27.6621C94.5607 28.1439 94.0561 28.5215 93.4637 28.7949C92.8777 29.0618 92.2137 29.1953 91.4715 29.1953C90.7293 29.1953 90.062 29.0618 89.4695 28.7949C88.8771 28.5215 88.3693 28.1439 87.9461 27.6621C87.5294 27.1738 87.2104 26.6042 86.9891 25.9531C86.7677 25.3021 86.657 24.5957 86.657 23.834ZM88.4637 23.6094V23.834C88.4637 24.3613 88.5255 24.8594 88.6492 25.3281C88.7729 25.7904 88.9585 26.2005 89.2059 26.5586C89.4598 26.9167 89.7755 27.1999 90.1531 27.4082C90.5307 27.61 90.9702 27.7109 91.4715 27.7109C91.9663 27.7109 92.3992 27.61 92.7703 27.4082C93.1479 27.1999 93.4604 26.9167 93.7078 26.5586C93.9552 26.2005 94.1408 25.7904 94.2645 25.3281C94.3947 24.8594 94.4598 24.3613 94.4598 23.834V23.6094C94.4598 23.0885 94.3947 22.597 94.2645 22.1348C94.1408 21.666 93.952 21.2526 93.698 20.8945C93.4506 20.5299 93.1381 20.2435 92.7605 20.0352C92.3895 19.8268 91.9533 19.7227 91.452 19.7227C90.9572 19.7227 90.521 19.8268 90.1434 20.0352C89.7723 20.2435 89.4598 20.5299 89.2059 20.8945C88.9585 21.2526 88.7729 21.666 88.6492 22.1348C88.5255 22.597 88.4637 23.0885 88.4637 23.6094Z" fill="black"/>
</svg>
