<svg width="31" height="29" viewBox="0 0 31 29" fill="none" xmlns="http://www.w3.org/2000/svg">
<path d="M15.0532 5.94621C7.45927 9.17006 0.868301 12.2506 0.438455 12.6805C-0.851083 13.97 0.79666 15.5461 4.16379 16.6207C7.60256 17.6237 7.96076 17.9819 9.39358 23.1401C10.6115 27.2952 11.7577 28.1549 13.4055 26.0773C15.6263 23.4266 16.8442 23.4266 20.1397 26.149C23.7218 29.0863 25.3695 29.3012 26.3009 27.0087C27.3755 24.4296 31.459 1.50447 30.9575 0.716421C30.7426 0.358215 30.0978 1.14441e-05 29.668 1.14441e-05C29.1665 0.0716515 22.5755 2.72237 15.0532 5.94621ZM29.668 3.00893C29.4531 3.94027 28.4501 9.45662 27.3038 15.4028C26.2292 21.2774 25.083 26.4355 24.7964 26.7937C24.2949 27.3669 14.9099 20.9908 14.8383 19.9879C14.8383 19.7013 17.489 16.4058 20.6412 12.6088C23.8651 8.81186 26.3009 5.51637 26.0143 5.2298C25.7994 5.01488 21.7158 7.37904 16.9159 10.5312L8.24733 16.3342L4.73692 15.1879C2.80261 14.5431 1.44143 13.8267 1.72799 13.5402C2.37276 12.8954 28.4501 1.57611 29.4531 1.50447C29.7396 1.43283 29.8829 2.14924 29.668 3.00893ZM19.7815 11.2477C19.2084 11.9641 17.489 14.1133 15.8413 16.1192C14.1935 18.0535 12.5458 20.8475 12.1876 22.2087L11.5428 24.7162L10.3249 21.1341C9.32194 18.3401 9.2503 17.4804 9.96671 17.0506C10.4682 16.764 12.9756 15.1163 15.5547 13.3252C20.8561 9.67155 21.1427 9.52826 19.7815 11.2477ZM15.1249 22.1371C15.3398 22.4953 15.0532 23.1401 14.4801 23.6415C13.5488 24.358 13.4055 24.2863 13.4055 22.9968C13.4055 21.4923 14.4085 20.9908 15.1249 22.1371Z" fill="black"/>
</svg>
